<svg xmlns="http://www.w3.org/2000/svg" width="1200" height="444" role="img">
<title>SegmentedSequence fresh append, Apple M5 Pro</title>
<rect width="100%" height="100%" fill="white"/>
<text x="16" y="28" font-family="sans-serif" font-size="18">SegmentedSequence fresh append, Apple M5 Pro</text>
<text x="16" y="50" font-family="sans-serif" font-size="12">CPU ns/operation: median bars; observed min–max whiskers (not confidence intervals)</text>
<g><title>Vector/AppendFresh</title>
<text x="16" y="92" font-family="monospace" font-size="11">Vector/AppendFresh</text>
<rect x="580" y="76" width="74.269" height="24" fill="#2563eb"/>
<path d="M 653.019 88 H 673.389 M 653.019 82 V 94 M 673.389 82 V 94" stroke="#111827" fill="none"/>
<text x="1080" y="92" font-family="sans-serif" font-size="12">1.29 ns; n=9</text>
</g>
<g><title>Deque/AppendFresh</title>
<text x="16" y="140" font-family="monospace" font-size="11">Deque/AppendFresh</text>
<rect x="580" y="124" width="57.685" height="24" fill="#2563eb"/>
<path d="M 636.881 136 H 638.417 M 636.881 130 V 142 M 638.417 130 V 142" stroke="#111827" fill="none"/>
<text x="1080" y="140" font-family="sans-serif" font-size="12">1 ns; n=9</text>
</g>
<g><title>SegmentedSequence/AppendFresh/Uniform64</title>
<text x="16" y="188" font-family="monospace" font-size="11">SegmentedSequence/AppendFresh/Uniform64</text>
<rect x="580" y="172" width="353.241" height="24" fill="#2563eb"/>
<path d="M 932.283 184 H 1024.978 M 932.283 178 V 190 M 1024.978 178 V 190" stroke="#111827" fill="none"/>
<text x="1080" y="188" font-family="sans-serif" font-size="12">6.14 ns; n=9</text>
</g>
<g><title>SegmentedSequence/AppendFresh/Uniform256</title>
<text x="16" y="236" font-family="monospace" font-size="11">SegmentedSequence/AppendFresh/Uniform256</text>
<rect x="580" y="220" width="315.356" height="24" fill="#2563eb"/>
<path d="M 894.503 232 H 955.247 M 894.503 226 V 238 M 955.247 226 V 238" stroke="#111827" fill="none"/>
<text x="1080" y="236" font-family="sans-serif" font-size="12">5.48 ns; n=9</text>
</g>
<g><title>SegmentedSequence/AppendFresh/Uniform1024</title>
<text x="16" y="284" font-family="monospace" font-size="11">SegmentedSequence/AppendFresh/Uniform1024</text>
<rect x="580" y="268" width="304.534" height="24" fill="#2563eb"/>
<path d="M 883.878 280 H 885.842 M 883.878 274 V 286 M 885.842 274 V 286" stroke="#111827" fill="none"/>
<text x="1080" y="284" font-family="sans-serif" font-size="12">5.29 ns; n=9</text>
</g>
<g><title>SegmentedSequence/AppendFresh/Listed</title>
<text x="16" y="332" font-family="monospace" font-size="11">SegmentedSequence/AppendFresh/Listed</text>
<rect x="580" y="316" width="337.524" height="24" fill="#2563eb"/>
<path d="M 906.650 328 H 1060.000 M 906.650 322 V 334 M 1060.000 322 V 334" stroke="#111827" fill="none"/>
<text x="1080" y="332" font-family="sans-serif" font-size="12">5.86 ns; n=9</text>
</g>
<text x="16" y="392" font-family="sans-serif" font-size="11">Apple M5 Pro / clang-22 / c++20 / opt</text>
<text x="16" y="410" font-family="monospace" font-size="11">Measured commit: aeb18e3b47105e5d3ad93266db9c36f28d7f92a2</text>
<text x="16" y="428" font-family="monospace" font-size="11">Source artifact SHA-256: 8fd71d491860e28b60e1484833370b346eeaef6e6ca85d4aa531c22760ac689f</text>
</svg>
