<svg xmlns="http://www.w3.org/2000/svg" width="1200" height="684" role="img">
<title>HAMT map lookup hit at 1,024 entries</title>
<rect width="100%" height="100%" fill="white"/>
<text x="16" y="28" font-family="sans-serif" font-size="18">HAMT map lookup hit at 1,024 entries</text>
<text x="16" y="50" font-family="sans-serif" font-size="12">CPU ns/operation: median bars; observed min–max whiskers (not confidence intervals)</text>
<g><title>HamtMap/Flat4/FindHit/1024</title>
<text x="16" y="92" font-family="monospace" font-size="11">HamtMap/Flat4/FindHit/1024</text>
<rect x="580" y="76" width="469.655" height="24" fill="#2563eb"/>
<path d="M 1040.063 88 H 1057.602 M 1040.063 82 V 94 M 1057.602 82 V 94" stroke="#111827" fill="none"/>
<text x="1080" y="92" font-family="sans-serif" font-size="12">31.9 ns; n=9</text>
</g>
<g><title>HamtMap/Flat5/FindHit/1024</title>
<text x="16" y="140" font-family="monospace" font-size="11">HamtMap/Flat5/FindHit/1024</text>
<rect x="580" y="124" width="387.078" height="24" fill="#2563eb"/>
<path d="M 964.690 136 H 970.634 M 964.690 130 V 142 M 970.634 130 V 142" stroke="#111827" fill="none"/>
<text x="1080" y="140" font-family="sans-serif" font-size="12">26.3 ns; n=9</text>
</g>
<g><title>HamtMap/Flat6/FindHit/1024</title>
<text x="16" y="188" font-family="monospace" font-size="11">HamtMap/Flat6/FindHit/1024</text>
<rect x="580" y="172" width="289.525" height="24" fill="#2563eb"/>
<path d="M 867.374 184 H 872.606 M 867.374 178 V 190 M 872.606 178 V 190" stroke="#111827" fill="none"/>
<text x="1080" y="188" font-family="sans-serif" font-size="12">19.7 ns; n=9</text>
</g>
<g><title>HamtMap/Flat7/FindHit/1024</title>
<text x="16" y="236" font-family="monospace" font-size="11">HamtMap/Flat7/FindHit/1024</text>
<rect x="580" y="220" width="292.940" height="24" fill="#2563eb"/>
<path d="M 866.331 232 H 875.742 M 866.331 226 V 238 M 875.742 226 V 238" stroke="#111827" fill="none"/>
<text x="1080" y="236" font-family="sans-serif" font-size="12">19.9 ns; n=9</text>
</g>
<g><title>HamtMap/Node4/FindHit/1024</title>
<text x="16" y="284" font-family="monospace" font-size="11">HamtMap/Node4/FindHit/1024</text>
<rect x="580" y="268" width="476.369" height="24" fill="#2563eb"/>
<path d="M 1046.297 280 H 1060.000 M 1046.297 274 V 286 M 1060.000 274 V 286" stroke="#111827" fill="none"/>
<text x="1080" y="284" font-family="sans-serif" font-size="12">32.3 ns; n=9</text>
</g>
<g><title>HamtMap/Node5/FindHit/1024</title>
<text x="16" y="332" font-family="monospace" font-size="11">HamtMap/Node5/FindHit/1024</text>
<rect x="580" y="316" width="394.730" height="24" fill="#2563eb"/>
<path d="M 967.621 328 H 980.823 M 967.621 322 V 334 M 980.823 322 V 334" stroke="#111827" fill="none"/>
<text x="1080" y="332" font-family="sans-serif" font-size="12">26.8 ns; n=9</text>
</g>
<g><title>HamtMap/Node6/FindHit/1024</title>
<text x="16" y="380" font-family="monospace" font-size="11">HamtMap/Node6/FindHit/1024</text>
<rect x="580" y="364" width="302.098" height="24" fill="#2563eb"/>
<path d="M 880.461 376 H 885.803 M 880.461 370 V 382 M 885.803 370 V 382" stroke="#111827" fill="none"/>
<text x="1080" y="380" font-family="sans-serif" font-size="12">20.5 ns; n=9</text>
</g>
<g><title>HamtMap/Node7/FindHit/1024</title>
<text x="16" y="428" font-family="monospace" font-size="11">HamtMap/Node7/FindHit/1024</text>
<rect x="580" y="412" width="279.571" height="24" fill="#2563eb"/>
<path d="M 857.397 424 H 861.231 M 857.397 418 V 430 M 861.231 418 V 430" stroke="#111827" fill="none"/>
<text x="1080" y="428" font-family="sans-serif" font-size="12">19 ns; n=9</text>
</g>
<g><title>HamtMap/Standard/FindHit/1024</title>
<text x="16" y="476" font-family="monospace" font-size="11">HamtMap/Standard/FindHit/1024</text>
<rect x="580" y="460" width="30.355" height="24" fill="#2563eb"/>
<path d="M 610.011 472 H 614.248 M 610.011 466 V 478 M 614.248 466 V 478" stroke="#111827" fill="none"/>
<text x="1080" y="476" font-family="sans-serif" font-size="12">2.06 ns; n=9</text>
</g>
<g><title>HamtMap/AbseilFlat/FindHit/1024</title>
<text x="16" y="524" font-family="monospace" font-size="11">HamtMap/AbseilFlat/FindHit/1024</text>
<rect x="580" y="508" width="37.082" height="24" fill="#2563eb"/>
<path d="M 616.271 520 H 617.679 M 616.271 514 V 526 M 617.679 514 V 526" stroke="#111827" fill="none"/>
<text x="1080" y="524" font-family="sans-serif" font-size="12">2.52 ns; n=9</text>
</g>
<g><title>HamtMap/AbseilNode/FindHit/1024</title>
<text x="16" y="572" font-family="monospace" font-size="11">HamtMap/AbseilNode/FindHit/1024</text>
<rect x="580" y="556" width="39.887" height="24" fill="#2563eb"/>
<path d="M 616.809 568 H 620.145 M 616.809 562 V 574 M 620.145 562 V 574" stroke="#111827" fill="none"/>
<text x="1080" y="572" font-family="sans-serif" font-size="12">2.71 ns; n=9</text>
</g>
<text x="16" y="632" font-family="sans-serif" font-size="11">Apple M5 Pro / 21.0.0 (clang-2100.3.34.2) / c++20 / opt</text>
<text x="16" y="650" font-family="monospace" font-size="11">Measured commit: 969abfd2c798db4a1a22c93a594865f8548b9c0a</text>
<text x="16" y="668" font-family="monospace" font-size="11">Source artifact SHA-256: 50c0ca004b0dbce576afa2b6f6793ce01758359c6ac9fe02ffbbb0311470ac83</text>
</svg>
