<svg xmlns="http://www.w3.org/2000/svg" width="1200" height="348" role="img">
<title>StringInterner folded hash width, 1024 strings, Apple M5 Pro</title>
<rect width="100%" height="100%" fill="white"/>
<text x="16" y="28" font-family="sans-serif" font-size="18">StringInterner folded hash width, 1024 strings, Apple M5 Pro</text>
<text x="16" y="50" font-family="sans-serif" font-size="12">CPU ns/operation: median bars; observed min–max whiskers (not confidence intervals)</text>
<g><title>StringInterner/HamtFlat5/UniqueLifecycle/strings:1024/bytes:64/embedded_nul:0</title>
<text x="16" y="92" font-family="monospace" font-size="11">StringInterner/HamtFlat5/UniqueLifecycle/strings:1024/bytes:64/embedded_nul:0</text>
<rect x="580" y="76" width="471.590" height="24" fill="#2563eb"/>
<path d="M 1047.384 88 H 1060.000 M 1047.384 82 V 94 M 1060.000 82 V 94" stroke="#111827" fill="none"/>
<text x="1080" y="92" font-family="sans-serif" font-size="12">261 ns; n=9</text>
</g>
<g><title>StringInterner/HamtFlat5Fold32/UniqueLifecycle/strings:1024/bytes:64/embedded_nul:0</title>
<text x="16" y="140" font-family="monospace" font-size="11">StringInterner/HamtFlat5Fold32/UniqueLifecycle/strings:1024/bytes:64/embedded_nu</text>
<text x="16" y="156" font-family="monospace" font-size="11">l:0</text>
<rect x="580" y="124" width="462.745" height="24" fill="#2563eb"/>
<path d="M 1037.781 136 H 1044.835 M 1037.781 130 V 142 M 1044.835 130 V 142" stroke="#111827" fill="none"/>
<text x="1080" y="140" font-family="sans-serif" font-size="12">256 ns; n=9</text>
</g>
<g><title>StringInterner/HamtFlat5Id64/UniqueLifecycle/strings:1024/bytes:64/embedded_nul:0</title>
<text x="16" y="188" font-family="monospace" font-size="11">StringInterner/HamtFlat5Id64/UniqueLifecycle/strings:1024/bytes:64/embedded_nul:</text>
<text x="16" y="204" font-family="monospace" font-size="11">0</text>
<rect x="580" y="172" width="470.844" height="24" fill="#2563eb"/>
<path d="M 1043.586 184 H 1053.964 M 1043.586 178 V 190 M 1053.964 178 V 190" stroke="#111827" fill="none"/>
<text x="1080" y="188" font-family="sans-serif" font-size="12">261 ns; n=9</text>
</g>
<g><title>StringInterner/HamtFlat5Fold32Id64/UniqueLifecycle/strings:1024/bytes:64/embedded_nul:0</title>
<text x="16" y="236" font-family="monospace" font-size="11">StringInterner/HamtFlat5Fold32Id64/UniqueLifecycle/strings:1024/bytes:64/embedde</text>
<text x="16" y="252" font-family="monospace" font-size="11">d_nul:0</text>
<rect x="580" y="220" width="465.146" height="24" fill="#2563eb"/>
<path d="M 1040.602 232 H 1055.591 M 1040.602 226 V 238 M 1055.591 226 V 238" stroke="#111827" fill="none"/>
<text x="1080" y="236" font-family="sans-serif" font-size="12">258 ns; n=9</text>
</g>
<text x="16" y="296" font-family="sans-serif" font-size="11">Apple M5 Pro / 21.0.0 (clang-2100.3.34.2) / c++20 / opt</text>
<text x="16" y="314" font-family="monospace" font-size="11">Measured commit: f645e745f81248dfae7742e3cf52fe9fe76857f7</text>
<text x="16" y="332" font-family="monospace" font-size="11">Source artifact SHA-256: be06c57b39509158406c31a655003498bb46cf2b84c1c65d1cac7aaaaf7546f1</text>
</svg>
